<?xml version="1.0" standalone="no"?>
<!DOCTYPE svg PUBLIC "-//W3C//DTD SVG 20010904//EN"
 "http://www.w3.org/TR/2001/REC-SVG-20010904/DTD/svg10.dtd">
<svg version="1.0" xmlns="http://www.w3.org/2000/svg"
 width="860.000000pt" height="900.000000pt" viewBox="0 0 860.000000 900.000000"
 preserveAspectRatio="xMidYMid meet">

<g transform="translate(0.000000,900.000000) scale(0.100000,-0.100000)"
fill="#000000" stroke="none">
<path d="M1465 8573 c-504 -64 -920 -405 -1080 -886 -70 -210 -66 -12 -62
-3142 3 -2818 3 -2820 24 -2910 55 -238 163 -440 331 -616 187 -198 407 -322
673 -381 l104 -23 2850 0 2850 0 104 23 c262 58 482 181 667 373 173 181 280
381 336 629 l23 105 0 2850 c0 2755 -1 2853 -19 2940 -107 513 -486 899 -997
1018 l-94 22 -2840 1 c-1562 1 -2853 -1 -2870 -3z m5642 -104 c339 -38 639
-207 841 -474 72 -95 166 -289 199 -410 l28 -100 3 -2845 c2 -2122 0 -2864 -9
-2920 -23 -153 -93 -331 -187 -475 -58 -88 -236 -267 -322 -324 -146 -95 -325
-165 -490 -190 -56 -9 -793 -11 -2910 -9 l-2835 3 -98 27 c-223 61 -379 152
-542 313 -189 186 -289 375 -347 654 -16 77 -24 5458 -8 5641 13 158 49 299
106 419 182 386 535 642 949 689 119 14 5501 15 5622 1z"/>
<path d="M6425 7753 c-155 -33 -295 -107 -413 -218 -96 -90 -148 -163 -202
-279 -59 -128 -75 -208 -74 -371 1 -121 5 -152 28 -228 190 -630 956 -845
1434 -401 121 112 198 236 249 401 23 77 27 105 27 233 1 169 -19 262 -85 394
-52 104 -92 157 -187 248 -124 118 -256 187 -425 222 -94 20 -258 19 -352 -1z"/>
<path d="M2030 3274 c-218 -25 -386 -107 -540 -263 -192 -194 -280 -441 -251
-704 24 -214 113 -391 273 -543 179 -170 374 -241 637 -232 119 4 148 9 231
37 137 46 239 110 345 216 106 106 170 208 216 345 29 84 33 111 37 235 3 101
0 160 -11 211 -58 274 -259 521 -509 626 -129 54 -312 85 -428 72z"/>
</g>
</svg>
