<?xml version="1.0" encoding="utf-8"?>
<!-- Generator: Adobe Adobe Illustrator 24.2.0, SVG Export Plug-In . SVG Version: 6.00 Build 0)  -->
<svg version="1.1" id="Layer_1" xmlns="http://www.w3.org/2000/svg" xmlns:xlink="http://www.w3.org/1999/xlink" x="0px" y="0px"
	 width="627px" height="177px" viewBox="0 0 627 177" style="enable-background:new 0 0 627 177;" xml:space="preserve">
<style type="text/css">
	
		.st0{fill-rule:evenodd;clip-rule:evenodd;fill:#404040;stroke:#404040;stroke-width:3;stroke-linecap:round;stroke-linejoin:round;stroke-miterlimit:10;}
	
		.st1{fill-rule:evenodd;clip-rule:evenodd;fill:none;stroke:#404040;stroke-width:19;stroke-linecap:round;stroke-linejoin:round;stroke-miterlimit:10;}
	.st2{fill-rule:evenodd;clip-rule:evenodd;fill:none;stroke:#404040;stroke-width:19;stroke-miterlimit:10;}
	
		.st3{fill-rule:evenodd;clip-rule:evenodd;fill:#404040;stroke:#404040;stroke-width:7;stroke-linecap:round;stroke-linejoin:round;stroke-miterlimit:10;}
	
		.st4{fill-rule:evenodd;clip-rule:evenodd;fill:#404040;stroke:#404040;stroke-width:16;stroke-linecap:round;stroke-linejoin:round;stroke-miterlimit:10;}
	.st5{fill-rule:evenodd;clip-rule:evenodd;fill:#404040;stroke:#404040;stroke-miterlimit:10;}
	.st6{fill-rule:evenodd;clip-rule:evenodd;fill:#404040;stroke:#404040;stroke-miterlimit:10;enable-background:new    ;}
</style>
<path class="st0" d="M363.8,127c0-12.9-0.1-29.9-0.1-44.7c0-8.6-9.9-21.2-23.6-22c-6.7-0.4-13.9,2.6-18.8,5.4c-1.2,0.7-0.4-6-8.8-6
	c-2.7,0-6.3,1.8-6.3,3.8c0,14.8-0.2,50.4-0.2,63.5c0,4.2,15.7,3.6,15.7,0c0-8.3-0.2-31.8-0.2-41.3c0-4.3,9.3-7.9,13.8-8.1
	c4-0.2,12.4,3.8,12.4,7.6c0,10.1-0.2,31.1-0.2,41.7C347.4,129.4,363.8,129.3,363.8,127z"/>
<path class="st1" d="M425.8,106.4c-3.9,9.7-13.9,16.4-25.2,15.2c-11.3-1.2-20.4-10.2-21.6-21.5c-1.6-14.7,9.8-27.1,24.2-27.1
	c4.9,0,9.5,1.5,13.7,3"/>
<circle class="st2" cx="263.8" cy="94.8" r="26.5"/>
<rect x="16.4" y="23.6" class="st3" width="9" height="104.5"/>
<path class="st0" d="M211.2,78.5c2.4-0.6,7.6-7.8,5.3-10.6c-3.9-5-14.1-9.6-23.2-9c-32.9,2-28.4,35.6-7.2,42.2
	c14.8,4.6,16.8,5.7,16.2,9.3c-1.7,10.5-24-3-27.2-3.1c-1.4,0-3.8,1.6-5.5,4c-0.5,0.7-0.9,1.4-1.2,2.1c-2.3,5.3-0.5,12.6,17.2,15.7
	c39.9,7,46.6-30.9,18.3-39.5c-3.8-1.1-11.8-2.3-15.2-4.4c-4.2-2.6-1.3-10.5,6-10.5C197.1,74.8,209.2,79,211.2,78.5z"/>
<path class="st0" d="M150.4,78.5c2.4-0.6,7.6-7.8,5.3-10.6c-3.9-5-14.1-9.6-23.2-9c-32.9,2-28.4,35.6-7.2,42.2
	c14.8,4.6,16.8,5.7,16.2,9.3c-1.7,10.5-24-3-27.2-3.1c-1.4,0-3.8,1.6-5.5,4c-0.5,0.7-0.9,1.4-1.2,2.1c-2.3,5.3-0.5,12.6,17.2,15.7
	c39.9,7,46.6-30.9,18.3-39.5c-3.8-1.1-11.8-2.3-15.2-4.4c-4.2-2.6-1.3-10.5,6-10.5C136.3,74.8,148.5,79,150.4,78.5z"/>
<path class="st0" d="M567.9,64.8c0,17.5,0.1,47.2,0.1,62.1c0,2,4.3,3.1,7.4,3.5c2.2,0.3,8.3-0.9,8.3-3.1c0-8.4,0.1-21.7,0.1-32.3
	c0-2.4-0.9-7.3,2.7-11.3c5.2-5.6,26.9-4.2,23.8-17.4c-0.5-2.2-3.1-4.2-5.3-4.8c-2.5-0.7-7.1,0.1-10.3,1.2c-2.9,1-6.8,2.6-9.9,5.7
	c-2,2-4.1-6.6-6.6-7.8C571.4,57.4,567.9,63.4,567.9,64.8z"/>
<path class="st4" d="M383.9,148.9c0,0,5.6,3.7,11.5,5.4c2.3,0.7,9.3,1.9,15.9-0.1c5.1-1.6,9.5-5.3,9.5-5.3"/>
<g>
	<g>
		<path class="st5" d="M94.4,69.6c-5.8-8-13.8-11.6-24-11.8c-47.5-0.9-52.1,73.1,0.4,73.1c4.8,0,12-0.9,19.6-4.3
			c7-3.2,7.1-6.3,3.8-13c-4.5-9.3-6.6-2.5-23.8-1.3C58,113.1,51.4,100,54.1,100c0,0,0.1,0,0.1,0c1.7,0,34.9,0.5,39.7-0.3
			c3.7-0.6,5.6-3,6.1-7C101.1,84.1,98.4,75,94.4,69.6z M82.5,88.8l-29.3,0c-0.7,0-1.3-0.6-1.2-1.3c0.5-3.5,2.8-13,14.7-13
			c14.9,0,16.8,9.6,17,13C83.8,88.2,83.3,88.8,82.5,88.8z"/>
	</g>
</g>
<g>
	<g>
		<path class="st5" d="M498.8,70.1c-5.8-8-13.8-11.6-24-11.8c-47.5-0.9-52.1,73.1,0.4,73.1c4.8,0,11.7-0.3,19.4-4.1
			c6.9-3.4,10-6.5,3.8-14.7c-5.8-7.8-6.4-1-23.6,0.2c-12.6,0.8-19.1-12.3-16.4-12.3c0,0,0.1,0,0.1,0c1.7,0,34.9,0.5,39.7-0.3
			c3.7-0.6,5.6-3,6.1-7C505.5,84.5,502.8,75.5,498.8,70.1z M486.9,89.2l-29.3,0c-0.7,0-1.3-0.6-1.2-1.3c0.5-3.5,2.8-13,14.7-13
			c14.9,0,16.8,9.6,17,13C488.2,88.7,487.6,89.2,486.9,89.2z"/>
	</g>
</g>
<path class="st6" d="M527.9,59.4c10.9-1.6,20.8-0.1,29,7c7.3,6.4,4.2,28.3,4.2,56.1c0,7.5-9.9,8.2-14.8,2.5
	c-26.9,18.1-49.8-9.8-33-30.5c6.1-7.5,18.5-9.8,27.8-9c4.4,0.4,6.3-5.7,2.4-7.9c0,0-0.1,0-0.1-0.1c-0.9-0.5-1.8-0.8-2.8-1l-1.5-0.4
	c-2.3-0.6-4.6-0.5-6.9,0c-2,0.5-4.1,1.1-6.1,1.8c-3.6,1.2-7.7,0.6-10.6-1.8c-2.6-2.2-3.9-5.3-2.2-8.8
	C515.8,62.1,522.3,60.5,527.9,59.4z M530.1,101c4.6-1,9.8-0.8,14,1.5c2.8,1.5,2.6,6,0,8.2c-5.5,4.6-22,9.1-21-3.2
	C523.4,104.1,526.8,101.7,530.1,101z"/>
</svg>