<?xml version="1.0" encoding="UTF-8"?>
<svg id="Layer_1" data-name="Layer 1" xmlns="http://www.w3.org/2000/svg" viewBox="0 0 599.3 143.18">
  <defs>
    <style>
      .cls-1, .cls-2, .cls-3, .cls-4, .cls-5, .cls-6, .cls-7 {
        stroke: #d1d5db;
      }

      .cls-1, .cls-2, .cls-3, .cls-5, .cls-7 {
        fill-rule: evenodd;
      }

      .cls-1, .cls-2, .cls-4 {
        stroke-miterlimit: 10;
      }

      .cls-1, .cls-2, .cls-5, .cls-6, .cls-7 {
        fill: #d1d5db;
      }

      .cls-2 {
        isolation: isolate;
        opacity: .94;
      }

      .cls-3, .cls-4 {
        fill: none;
        stroke-width: 19px;
      }

      .cls-3, .cls-5, .cls-6, .cls-7 {
        stroke-linecap: round;
        stroke-linejoin: round;
      }

      .cls-5 {
        stroke-width: 16px;
      }

      .cls-6 {
        stroke-width: 7px;
      }

      .cls-7 {
        stroke-width: 3px;
      }
    </style>
  </defs>
  <path class="cls-7" d="M350.94,106.87c0-12.93-.15-29.91-.15-44.69,0-8.63-9.91-21.18-23.61-22.04-6.7-.42-13.9,2.56-18.81,5.4-1.24.71-.43-5.98-8.83-5.98-2.7,0-6.31,1.77-6.31,3.84,0,14.79-.16,50.37-.16,63.46,0,4.23,15.73,3.61,15.73,0,0-8.32-.21-31.75-.21-41.27,0-4.27,9.27-7.91,13.8-8.09,3.96-.16,12.37,3.8,12.37,7.62,0,10.13-.25,31.12-.25,41.73,0,2.45,16.43,2.32,16.43,0Z"/>
  <path class="cls-3" d="M412.94,86.3c-3.88,9.74-13.86,16.38-25.22,15.21s-20.39-10.19-21.63-21.46c-1.62-14.7,9.84-27.13,24.21-27.13,4.87,0,9.47,1.5,13.71,3.05"/>
  <path class="cls-2" d="M515,39.23c10.91-1.62,20.81-.15,29,7,7.31,6.38,4.25,28.31,4.25,56.15,0,7.51-9.87,8.19-14.75,2.5-26.95,18.12-49.84-9.81-33-30.49,6.09-7.48,18.52-9.77,27.79-8.99,4.43.37,6.33-5.69,2.44-7.87-.04-.02-.08-.04-.12-.06-.88-.48-1.83-.79-2.8-1.03l-1.51-.38c-2.27-.57-4.64-.54-6.9.05-2.04.53-4.06,1.13-6.06,1.78-3.63,1.19-7.7.61-10.63-1.84-2.64-2.21-3.86-5.28-2.22-8.82,2.45-5.3,8.95-6.81,14.5-8ZM517.25,80.88c4.64-1.02,9.83-.77,14,1.5,2.84,1.55,2.65,6.02,0,8.25-5.51,4.64-21.99,9.13-21-3.25.28-3.45,3.74-5.78,7-6.5Z"/>
  <circle class="cls-4" cx="250.94" cy="74.68" r="26.5"/>
  <rect class="cls-6" x="3.5" y="3.5" width="9" height="104.5"/>
  <path class="cls-7" d="M198.31,58.38c2.37-.57,7.57-7.77,5.32-10.63-3.93-4.99-14.15-9.6-23.19-9.04-32.91,2.03-28.37,35.57-7.23,42.16,14.79,4.61,16.83,5.71,16.24,9.34-1.7,10.47-23.98-2.96-27.22-3.06-1.41-.04-3.79,1.57-5.49,3.96-.47.66-.89,1.37-1.22,2.13-2.34,5.3-.51,12.61,17.2,15.72,39.87,7,46.61-30.89,18.27-39.46-3.79-1.14-11.85-2.3-15.19-4.41-4.16-2.63-1.29-10.49,6.05-10.46,2.38.01,14.51,4.21,16.48,3.74Z"/>
  <path class="cls-7" d="M137.58,58.38c2.37-.57,7.57-7.77,5.32-10.63-3.93-4.99-14.15-9.6-23.19-9.04-32.91,2.03-28.37,35.57-7.23,42.16,14.79,4.61,16.83,5.71,16.24,9.34-1.7,10.47-23.98-2.96-27.22-3.06-1.41-.04-3.79,1.57-5.49,3.96-.47.66-.89,1.37-1.22,2.13-2.34,5.3-.51,12.61,17.2,15.72,39.87,7,46.61-30.89,18.27-39.46-3.79-1.14-11.85-2.3-15.19-4.41-4.16-2.63-1.29-10.49,6.05-10.46,2.38.01,14.51,4.21,16.48,3.74Z"/>
  <path class="cls-7" d="M555.03,44.73c0,17.49.07,47.16.07,62.08,0,2.02,4.3,3.12,7.41,3.48,2.25.26,8.31-.86,8.31-3.06,0-8.39.15-21.71.15-32.3,0-2.39-.94-7.34,2.74-11.28,5.22-5.59,26.9-4.23,23.8-17.43-.51-2.19-3.1-4.24-5.28-4.82-2.5-.67-7.07.09-10.27,1.15-2.92.97-6.79,2.59-9.94,5.73-2,1.98-4.08-6.62-6.64-7.81-6.82-3.15-10.33,2.78-10.33,4.26Z"/>
  <path class="cls-5" d="M371.03,128.76s5.59,3.74,11.45,5.43c2.32.67,9.3,1.93,15.85-.13,5.12-1.6,9.52-5.29,9.52-5.29"/>
  <path class="cls-1" d="M81.59,49.53c-5.8-8-13.81-11.61-23.95-11.8-47.49-.92-52.12,73.06.42,73.06,4.8,0,12.03-.86,19.62-4.32,6.97-3.17,7.12-6.29,3.85-12.99-4.52-9.25-6.63-2.45-23.85-1.31-12.56.84-19.07-12.3-16.4-12.3.01,0,.07,0,.09,0,1.68,0,34.94.46,39.69-.34,3.69-.62,5.64-2.99,6.14-7.01,1.05-8.58-1.67-17.61-5.59-23.01ZM69.69,68.66h-29.31c-.73,0-1.3-.59-1.21-1.27.45-3.49,2.78-12.98,14.73-12.98,14.9,0,16.8,9.61,17.01,13.05.04.65-.51,1.2-1.22,1.2Z"/>
  <path class="cls-1" d="M485.98,49.96c-5.8-8-13.81-11.61-23.95-11.8-47.49-.92-52.12,73.06.42,73.06,4.8,0,11.74-.28,19.37-4.07,6.86-3.41,9.99-6.47,3.85-14.74-5.78-7.79-6.38-.95-23.6.19-12.56.84-19.07-12.3-16.4-12.3.01,0,.07,0,.09,0,1.68,0,34.94.46,39.69-.34,3.69-.62,5.64-2.99,6.14-7.01,1.05-8.58-1.67-17.61-5.59-23.01ZM474.09,69.1h-29.31c-.73,0-1.3-.59-1.21-1.27.45-3.49,2.78-12.98,14.73-12.98,14.9,0,16.8,9.61,17.01,13.05.04.65-.51,1.2-1.22,1.2Z"/>
</svg>