<?xml version="1.0" encoding="UTF-8"?>
<!DOCTYPE svg PUBLIC "-//W3C//DTD SVG 1.1//EN" "http://www.w3.org/Graphics/SVG/1.1/DTD/svg11.dtd">
<svg xmlns="http://www.w3.org/2000/svg" version="1.1" width="627px" height="177px" style="shape-rendering:geometricPrecision; text-rendering:geometricPrecision; image-rendering:optimizeQuality; fill-rule:evenodd; clip-rule:evenodd" xmlns:xlink="http://www.w3.org/1999/xlink">
<g><path style="opacity:0.924" fill="#333333" d="M 31.5,22.5 C 34.5184,22.3354 37.5184,22.502 40.5,23C 41.3333,23.8333 42.1667,24.6667 43,25.5C 44.27,33.3967 44.9367,41.3967 45,49.5C 45.6667,75.8333 45.6667,102.167 45,128.5C 43.8771,132.819 41.0438,134.819 36.5,134.5C 31.9946,134.833 29.1612,132.833 28,128.5C 27.3333,94.8333 27.3333,61.1667 28,27.5C 28.9973,25.6769 30.1639,24.0103 31.5,22.5 Z"/></g>
<g><path style="opacity:0.918" fill="#333434" d="M 147.5,63.5 C 156.379,63.4273 164.546,65.7606 172,70.5C 172.638,71.6086 173.138,72.7753 173.5,74C 172.261,77.8145 170.261,81.1478 167.5,84C 165.833,84.6667 164.167,84.6667 162.5,84C 157.982,81.4952 153.148,79.9952 148,79.5C 143.931,79.4496 141.098,81.283 139.5,85C 140.167,87 141.5,88.3333 143.5,89C 152.194,90.5891 160.527,93.2558 168.5,97C 175.632,103.84 177.465,112.007 174,121.5C 168.407,131.633 159.741,136.3 148,135.5C 138.454,135.653 130.12,132.653 123,126.5C 122.702,114.111 127.868,110.944 138.5,117C 144.558,120.18 150.558,120.18 156.5,117C 160.439,113.482 159.772,110.816 154.5,109C 146.153,107.799 138.153,105.465 130.5,102C 122.166,94.2427 120.332,85.076 125,74.5C 131.094,67.702 138.594,64.0353 147.5,63.5 Z"/></g>
<g><path style="opacity:0.916" fill="#333333" d="M 206.5,63.5 C 215.491,63.1371 223.658,65.4704 231,70.5C 232.301,72.3646 232.635,74.3646 232,76.5C 230.5,78.6667 229,80.8333 227.5,83C 224.833,83.6667 222.167,83.6667 219.5,83C 212.074,77.7677 205.408,78.4344 199.5,85C 200.68,87.5978 202.68,89.2645 205.5,90C 214.023,91.1299 222.023,93.7966 229.5,98C 237.5,108.333 237.5,118.667 229.5,129C 214.898,137.625 200.232,137.625 185.5,129C 181.356,126.28 180.523,122.78 183,118.5C 185.05,116.112 187.384,114.112 190,112.5C 195.592,116.309 201.759,118.643 208.5,119.5C 214.752,120.063 217.919,117.396 218,111.5C 217.097,110.299 215.931,109.465 214.5,109C 206.153,107.799 198.153,105.465 190.5,102C 181.208,93.2628 180.041,83.4295 187,72.5C 192.528,67.1493 199.028,64.1493 206.5,63.5 Z"/></g>
<g><path style="opacity:0.921" fill="#333334" d="M 79.5,64.5 C 102.64,63.9705 114.973,75.3038 116.5,98.5C 116.562,101.861 115.229,104.361 112.5,106C 98.1551,106.167 83.8217,106.667 69.5,107.5C 76.972,119.953 86.6386,122.12 98.5,114C 101.025,113.104 103.192,113.604 105,115.5C 106.333,117.5 107.667,119.5 109,121.5C 109.808,123.579 109.641,125.579 108.5,127.5C 94.4887,136.235 80.1554,136.735 65.5,129C 50.5722,115.249 47.4055,99.0825 56,80.5C 61.8246,72.0196 69.6579,66.6863 79.5,64.5 Z M 82.5,80.5 C 90.8101,80.6442 96.1435,84.6442 98.5,92.5C 88.8394,93.3794 79.1727,93.2127 69.5,92C 72.1445,86.185 76.4778,82.3517 82.5,80.5 Z"/></g>
<g><path style="opacity:0.924" fill="#333333" d="M 269.5,64.5 C 297.029,63.203 311.196,76.203 312,103.5C 305.702,129.452 289.535,139.286 263.5,133C 241.321,121.131 235.488,103.631 246,80.5C 252.12,72.5328 259.953,67.1995 269.5,64.5 Z M 271.5,81.5 C 287.595,80.7614 295.095,88.428 294,104.5C 285.153,121.063 274.153,122.73 261,109.5C 255.835,96.8416 259.335,87.5082 271.5,81.5 Z"/></g>
<g><path style="opacity:0.931" fill="#333334" d="M 357.5,148.5 C 357.435,148.938 357.601,149.272 358,149.5C 359.5,148 361,146.5 362.5,145C 362.272,144.601 361.938,144.435 361.5,144.5C 362.32,142.188 363.153,139.854 364,137.5C 364.667,122.833 364.667,108.167 364,93.5C 361.268,82.4822 354.768,79.3156 344.5,84C 341.567,86.2643 339.4,89.0976 338,92.5C 336.793,105.126 336.126,117.792 336,130.5C 330.938,135.345 325.605,135.678 320,131.5C 318.856,121.261 318.356,110.928 318.5,100.5C 318.368,89.7645 318.868,79.0978 320,68.5C 323.547,64.5716 327.714,63.7382 332.5,66C 334.487,67.3189 335.654,69.1523 336,71.5C 347.914,62.3855 360.081,62.2189 372.5,71C 377.377,76.253 380.544,82.4197 382,89.5C 382.667,106.167 382.667,122.833 382,139.5C 376.55,161.823 362.384,170.99 339.5,167C 331.983,165.326 325.816,161.492 321,155.5C 319.893,146.117 324.06,142.283 333.5,144C 337.561,147.947 342.394,150.447 348,151.5C 351.285,150.794 354.452,149.794 357.5,148.5 Z"/></g>
<g><path style="opacity:0.928" fill="#333334" d="M 390.5,76.5 C 390.435,76.9382 390.601,77.2716 391,77.5C 392.5,76 394,74.5 395.5,73C 395.272,72.6012 394.938,72.4346 394.5,72.5C 400.708,67.0765 408.041,64.4099 416.5,64.5C 424.863,64.119 432.029,66.7856 438,72.5C 439.037,81.1301 435.204,85.2967 426.5,85C 412.956,77.9013 404.29,81.7347 400.5,96.5C 402.318,106.515 407.985,110.015 417.5,107C 421.535,103.3 425.202,99.2998 428.5,95C 432.145,94.2811 435.812,93.7811 439.5,93.5C 445.336,69.245 460.336,60.4117 484.5,67C 499.206,75.2465 505.206,87.7465 502.5,104.5C 501.975,105.192 501.308,105.692 500.5,106C 486.155,106.167 471.822,106.667 457.5,107.5C 464.373,119.518 473.707,121.684 485.5,114C 486.833,113.333 488.167,113.333 489.5,114C 492.457,117.116 494.79,120.616 496.5,124.5C 495.781,126.728 494.448,128.561 492.5,130C 482.218,134.735 471.551,135.735 460.5,133C 449.802,128.469 442.802,120.636 439.5,109.5C 427.592,125.917 412.592,129.417 394.5,120C 384.836,112.009 381.336,101.842 384,89.5C 385.138,84.5574 387.305,80.2241 390.5,76.5 Z M 470.5,80.5 C 478.062,81.5598 483.062,85.7264 485.5,93C 476.149,93.8321 466.816,93.6654 457.5,92.5C 459.974,86.3546 464.307,82.3546 470.5,80.5 Z"/></g>
<g><path style="opacity:0.938" fill="#343434" d="M 524.5,64.5 C 535.405,62.8843 545.405,65.051 554.5,71C 556.727,73.5641 558.561,76.3974 560,79.5C 561.624,96.767 561.958,114.1 561,131.5C 555.21,135.86 549.877,135.194 545,129.5C 534.455,136.59 523.621,137.09 512.5,131C 502.236,119.993 501.903,108.66 511.5,97C 521.427,90.9817 532.094,89.1484 543.5,91.5C 544.855,86.9628 543.188,83.7961 538.5,82C 536.5,81.5 534.5,81 532.5,80.5C 527.898,81.5346 523.398,82.8679 519,84.5C 512.453,82.9751 509.453,78.9751 510,72.5C 514.119,68.3609 518.952,65.6942 524.5,64.5 Z M 528.5,105.5 C 533.248,105.275 537.915,105.775 542.5,107C 544.901,109.173 544.901,111.506 542.5,114C 539.661,115.92 536.661,117.587 533.5,119C 527.398,120.194 523.398,117.861 521.5,112C 523.077,108.92 525.41,106.753 528.5,105.5 Z"/></g>
<g><path style="opacity:0.918" fill="#333333" d="M 574.5,64.5 C 580.875,63.6832 584.875,66.3498 586.5,72.5C 591.809,66.344 598.476,63.844 606.5,65C 613.618,68.0954 615.285,73.0954 611.5,80C 606.676,81.898 601.676,83.2313 596.5,84C 591.293,86.5655 588.126,90.7321 587,96.5C 586.667,107.833 586.333,119.167 586,130.5C 584.334,133.666 581.668,135 578,134.5C 573.632,134.802 570.965,132.802 570,128.5C 569.333,108.833 569.333,89.1667 570,69.5C 571.025,67.313 572.525,65.6464 574.5,64.5 Z"/></g>
<g><path style="opacity:1" fill="#3d3f42" d="M 394.5,72.5 C 394.938,72.4346 395.272,72.6012 395.5,73C 394,74.5 392.5,76 391,77.5C 390.601,77.2716 390.435,76.9382 390.5,76.5C 391.5,74.8333 392.833,73.5 394.5,72.5 Z"/></g>
<g><path style="opacity:0.909" fill="#333434" d="M 390.5,133.5 C 395.05,132.884 399.05,134.051 402.5,137C 410.628,139.594 418.294,138.594 425.5,134C 435.485,131.984 439.319,135.818 437,145.5C 427.544,154.325 416.378,157.492 403.5,155C 396.776,153.939 391.276,150.772 387,145.5C 385.593,140.556 386.759,136.556 390.5,133.5 Z"/></g>
<g><path style="opacity:1" fill="#3d4041" d="M 361.5,144.5 C 361.938,144.435 362.272,144.601 362.5,145C 361,146.5 359.5,148 358,149.5C 357.601,149.272 357.435,148.938 357.5,148.5C 358.5,146.833 359.833,145.5 361.5,144.5 Z"/></g>
</svg>
