<svg version="1.1" id="Layer_1" xmlns="http://www.w3.org/2000/svg" xmlns:xlink="http://www.w3.org/1999/xlink" x="0px" y="0px"
	 width="100%" viewBox="0 0 627 177" enable-background="new 0 0 627 177" xml:space="preserve">
<path fill="#000000" opacity="1.000000" stroke="none" 
	d="
M601.000000,178.000000 
	C400.666718,178.000000 200.833405,178.000000 1.000080,178.000000 
	C1.000054,119.000046 1.000054,60.000092 1.000027,1.000104 
	C209.999924,1.000069 418.999847,1.000069 627.999817,1.000035 
	C627.999878,59.999905 627.999878,118.999809 627.999939,177.999847 
	C619.166687,178.000000 610.333313,178.000000 601.000000,178.000000 
M562.957581,129.965591 
	C562.924438,116.358810 562.891357,102.752022 562.915833,88.310150 
	C562.841919,81.744339 560.249207,75.999336 555.154968,72.270226 
	C542.970764,63.351009 529.698547,64.413185 516.541504,69.924576 
	C511.669647,71.965393 510.015503,76.017113 511.475464,79.444717 
	C513.511475,84.224747 519.089966,86.711708 523.826843,85.060822 
	C526.644409,84.078842 529.477112,83.026543 532.391174,82.457291 
	C539.641541,81.040947 546.350342,86.346054 545.332092,91.679001 
	C538.941162,92.192490 532.718445,92.498940 526.546082,93.230545 
	C515.300232,94.563515 509.753357,99.646309 507.063416,110.628395 
	C504.242859,122.143707 510.620361,132.850449 521.980286,136.022507 
	C528.996216,137.981567 535.564453,136.561539 541.727112,133.409668 
	C544.827393,131.824036 546.855042,131.651764 549.716858,133.939163 
	C554.936523,138.111130 560.880676,136.507797 562.957581,129.965591 
M338.540924,99.377846 
	C338.749695,98.066048 338.810181,96.709236 339.192383,95.450081 
	C341.069214,89.267021 344.979980,85.020844 351.360046,83.447540 
	C356.454285,82.191292 360.311401,84.726982 362.820618,88.656075 
	C364.527405,91.328629 365.731903,94.799194 365.814270,97.948128 
	C366.145203,110.601715 366.267883,123.279587 365.845337,135.927704 
	C365.541229,145.030792 359.751312,150.352127 351.420898,152.974731 
	C346.043182,154.667786 342.681519,150.388885 338.673370,148.136200 
	C337.961945,147.736359 337.450012,146.994232 336.759338,146.542755 
	C333.102570,144.152359 326.160278,145.085037 323.581512,148.275848 
	C320.941772,151.542084 321.641876,156.002380 325.307007,159.811813 
	C332.411011,167.195465 341.248352,169.002136 351.187347,169.132278 
	C371.355591,169.396408 382.914276,153.284302 383.814728,136.968796 
	C384.584778,123.015839 384.363007,108.972054 383.836792,94.996422 
	C383.490143,85.789879 380.224091,77.289169 372.313477,71.686844 
	C360.996033,63.671745 349.431061,63.886868 337.920624,71.884430 
	C334.744171,67.746201 331.161194,64.705338 325.616516,67.008133 
	C320.281372,69.223892 320.018341,73.936310 320.015381,78.712570 
	C320.005310,94.873985 319.966888,111.035767 320.062469,127.196671 
	C320.093658,132.467896 322.384369,134.991196 327.252167,135.803040 
	C331.960022,136.588211 336.024536,134.305908 337.941711,128.944107 
	C337.996674,119.292282 338.051666,109.640465 338.540924,99.377846 
M432.910004,96.409325 
	C430.774170,97.595459 428.454651,98.550514 426.568176,100.050301 
	C425.343597,101.023911 424.834442,102.852989 423.859802,104.193398 
	C420.280701,109.115913 413.301636,111.265770 408.909851,108.864952 
	C403.152283,105.717522 401.002167,98.865685 403.792786,92.558151 
	C408.042328,82.953156 415.121307,80.731842 426.122528,85.551392 
	C431.343323,87.838562 436.595337,86.042419 439.192169,81.081635 
	C441.391083,76.881004 439.621338,72.410912 434.237671,69.718330 
	C411.582764,58.387768 384.305267,73.078316 384.905853,98.489433 
	C385.183411,110.232094 390.223145,118.538582 400.473816,123.678246 
	C411.053192,128.982742 421.477722,128.023361 431.084930,121.270454 
	C434.767792,118.681755 437.744507,115.088425 441.228729,111.776360 
	C441.774597,112.766739 442.279816,113.438446 442.541809,114.194443 
	C449.337372,133.801712 468.868835,140.360214 488.373108,133.933701 
	C497.338135,130.979813 501.749695,125.841057 493.276825,118.451073 
	C492.915863,118.136238 492.753052,117.604485 492.453186,117.207611 
	C490.791595,115.008369 488.938995,114.565186 486.405182,116.038895 
	C483.982147,117.448189 481.394135,118.758545 478.709473,119.498970 
	C470.422455,121.784492 460.558319,116.798515 460.130798,108.342896 
	C462.054169,108.227798 463.987457,108.019135 465.921539,108.011810 
	C476.586395,107.971413 487.251465,107.963921 497.916412,107.981308 
	C501.419342,107.987022 504.427490,107.099258 504.812469,103.086800 
	C505.895599,91.798477 502.612122,81.571419 494.266541,74.127213 
	C477.004364,58.729458 451.054321,65.394402 443.332886,87.038612 
	C441.468475,92.264755 439.180725,95.732513 432.910004,96.409325 
M288.823090,67.435577 
	C266.936798,60.999672 237.598160,74.758606 243.404007,109.145462 
	C247.297913,132.208481 274.009949,144.317841 295.873016,132.163956 
	C308.179932,125.322411 314.605438,113.565506 313.745911,99.284782 
	C312.809967,83.733688 304.433228,73.041443 288.823090,67.435577 
M85.745590,66.017548 
	C68.362106,66.653282 55.754295,78.951309 53.317627,94.191803 
	C51.047363,108.391457 56.548973,123.493996 67.618317,130.726898 
	C79.060097,138.203156 96.601753,138.034241 107.839180,130.493118 
	C111.590294,127.975845 111.644623,124.963005 109.617432,121.504852 
	C105.855827,115.088005 103.676788,114.132660 99.249481,116.170448 
	C95.810234,117.753471 92.266907,119.364594 88.596008,120.135315 
	C81.698853,121.583405 72.665497,114.990067 72.259270,108.295937 
	C74.049522,108.196533 75.845200,108.016899 77.641495,108.010635 
	C86.462486,107.979874 95.283630,107.995857 104.104721,107.994087 
	C117.978561,107.991295 118.994804,106.801559 116.916382,93.000626 
	C114.534477,77.184525 102.478745,66.450104 85.745590,66.017548 
M153.618637,81.743889 
	C157.050278,82.967102 160.440247,84.328552 163.924179,85.378204 
	C168.193405,86.664459 171.243790,84.243439 173.957581,78.043991 
	C175.768326,73.907486 173.500443,71.945206 170.318680,70.134842 
	C161.222809,64.959442 151.366074,64.729958 141.572540,66.500900 
	C131.164505,68.382973 124.459091,76.222580 124.040901,85.419891 
	C123.534882,96.548897 128.173431,103.105362 139.619446,106.654808 
	C144.673920,108.222214 150.031372,108.811775 155.087769,110.374344 
	C157.034912,110.976059 158.527878,113.047455 160.227783,114.449219 
	C158.798126,116.132332 157.677094,118.431374 155.860245,119.341797 
	C153.616638,120.466064 150.633911,121.219223 148.257996,120.731766 
	C144.093521,119.877350 140.028397,118.214569 136.140961,116.416359 
	C131.334869,114.193214 128.823395,114.735657 125.800194,119.452286 
	C122.867516,124.027718 123.304474,127.289436 127.338707,130.148407 
	C138.732697,138.223022 151.134659,138.875366 163.871796,134.390244 
	C172.204163,131.456177 176.910278,123.701126 176.987259,114.471413 
	C177.069748,104.579506 173.950912,99.897606 164.415848,95.817314 
	C162.595520,95.038353 160.667587,94.475029 158.747284,93.972832 
	C154.415298,92.839935 149.969360,92.061050 145.754456,90.603989 
	C144.165817,90.054810 141.940247,87.924484 142.052658,86.703438 
	C142.210114,84.992790 143.972107,82.718666 145.611343,82.032928 
	C147.731964,81.145805 150.408081,81.586647 153.618637,81.743889 
M200.676804,136.009216 
	C211.008743,138.079575 220.826447,137.228775 229.795715,131.094559 
	C240.558105,123.734047 239.199219,101.885704 227.431961,97.793335 
	C221.185287,95.620872 214.772110,93.929489 208.510315,91.797112 
	C205.687744,90.835922 200.995544,90.168915 202.335602,86.318901 
	C203.160187,83.949860 207.649033,82.815117 210.563614,81.259171 
	C210.998581,81.026970 211.833801,81.494804 212.467117,81.692398 
	C215.317673,82.581764 218.165894,83.479004 221.008102,84.394653 
	C226.538040,86.176193 230.902817,83.989616 233.233521,78.254311 
	C234.809372,74.376572 232.988663,71.241844 227.498917,68.853439 
	C219.124939,65.210182 210.323685,64.679703 201.527756,66.462219 
	C192.363068,68.319450 186.539337,74.244568 184.468750,83.344231 
	C182.746307,90.913956 184.477341,97.900803 191.140472,102.353355 
	C195.035461,104.956123 199.791748,106.394279 204.313660,107.895126 
	C207.919464,109.091911 211.878586,109.254692 215.439178,110.543945 
	C217.168976,111.170296 219.589569,113.437386 219.469742,114.759842 
	C219.305649,116.570946 217.315811,119.147423 215.581772,119.679565 
	C212.557800,120.607559 209.011581,120.837112 205.907104,120.226501 
	C202.584137,119.572906 199.416092,117.802864 196.363708,116.176193 
	C191.247086,113.449440 187.923080,114.565399 184.318192,120.590332 
	C182.021881,124.428192 182.882507,127.933739 187.545410,130.559143 
	C191.420441,132.740952 195.725723,134.158585 200.676804,136.009216 
M44.901711,28.003304 
	C42.441841,22.651031 37.271015,23.610668 33.760620,24.885147 
	C31.469193,25.717068 29.250679,30.320620 29.219767,33.258053 
	C28.895384,64.083328 28.980700,94.913414 29.049084,125.741951 
	C29.064568,132.722809 32.026962,135.928909 37.914379,135.960388 
	C44.019276,135.993027 46.984562,133.030289 46.931629,126.028610 
	C46.694988,94.728668 46.302013,63.429874 45.925480,32.131149 
	C45.911873,31.000046 45.479332,29.873980 44.901711,28.003304 
M576.294922,66.481339 
	C572.352722,68.060806 570.996033,71.145447 571.006042,75.188431 
	C571.047913,92.148865 571.013367,109.109489 571.049744,126.069954 
	C571.052551,127.379051 571.240295,128.729065 571.595032,129.988815 
	C573.006958,135.002228 575.621338,136.514267 581.445190,135.928955 
	C586.188477,135.452225 587.979492,132.581177 587.975464,128.138199 
	C587.968384,120.323074 588.189758,112.501808 587.951721,104.694206 
	C587.581665,92.555016 593.658630,84.175644 606.554321,83.840485 
	C611.747620,83.705490 614.620422,80.657089 614.927551,76.296181 
	C615.274414,71.371574 612.633484,67.623222 607.665894,66.456627 
	C601.715881,65.059280 596.547791,67.009468 591.883667,70.654175 
	C590.661255,71.609390 589.442993,72.569923 587.978699,73.719780 
	C585.818665,68.202660 582.599609,65.369247 576.294922,66.481339 
M438.453918,146.711411 
	C440.385956,141.132355 439.154602,136.165466 435.109650,135.520065 
	C432.015503,135.026352 428.247345,135.084457 425.552399,136.437546 
	C416.872986,140.795303 408.700378,141.605774 400.118225,136.220444 
	C396.512421,133.957809 392.337524,134.064667 389.344421,137.797470 
	C386.861237,140.894302 387.927155,146.127563 390.976410,149.501633 
	C401.004272,160.597672 429.269958,159.368973 438.453918,146.711411 
z"/>
<path fill="#343434" opacity="1.000000" stroke="none" 
	d="
M433.269165,96.489273 
	C439.180725,95.732513 441.468475,92.264755 443.332886,87.038612 
	C451.054321,65.394402 477.004364,58.729458 494.266541,74.127213 
	C502.612122,81.571419 505.895599,91.798477 504.812469,103.086800 
	C504.427490,107.099258 501.419342,107.987022 497.916412,107.981308 
	C487.251465,107.963921 476.586395,107.971413 465.921539,108.011810 
	C463.987457,108.019135 462.054169,108.227798 460.130798,108.342896 
	C460.558319,116.798515 470.422455,121.784492 478.709473,119.498970 
	C481.394135,118.758545 483.982147,117.448189 486.405182,116.038895 
	C488.938995,114.565186 490.791595,115.008369 492.453186,117.207611 
	C492.753052,117.604485 492.915863,118.136238 493.276825,118.451073 
	C501.749695,125.841057 497.338135,130.979813 488.373108,133.933701 
	C468.868835,140.360214 449.337372,133.801712 442.541809,114.194443 
	C442.279816,113.438446 441.774597,112.766739 441.228729,111.776360 
	C437.744507,115.088425 434.767792,118.681755 431.084930,121.270454 
	C421.477722,128.023361 411.053192,128.982742 400.473816,123.678246 
	C390.223145,118.538582 385.183411,110.232094 384.905853,98.489433 
	C384.305267,73.078316 411.582764,58.387768 434.237671,69.718330 
	C439.621338,72.410912 441.391083,76.881004 439.192169,81.081635 
	C436.595337,86.042419 431.343323,87.838562 426.122528,85.551392 
	C415.121307,80.731842 408.042328,82.953156 403.792786,92.558151 
	C401.002167,98.865685 403.152283,105.717522 408.909851,108.864952 
	C413.301636,111.265770 420.280701,109.115913 423.859802,104.193398 
	C424.834442,102.852989 425.343597,101.023911 426.568176,100.050301 
	C428.454651,98.550514 430.774170,97.595459 433.269165,96.489273 
M459.762360,95.223724 
	C468.843018,95.111359 477.923645,94.998993 486.705688,94.257904 
	C485.049713,89.121712 482.128082,84.973946 476.849091,83.224220 
	C469.585815,80.816795 462.381866,85.656136 459.762360,95.223724 
z"/>
<path fill="#333333" opacity="1.000000" stroke="none" 
	d="
M337.839539,129.858063 
	C336.024536,134.305908 331.960022,136.588211 327.252167,135.803040 
	C322.384369,134.991196 320.093658,132.467896 320.062469,127.196671 
	C319.966888,111.035767 320.005310,94.873985 320.015381,78.712570 
	C320.018341,73.936310 320.281372,69.223892 325.616516,67.008133 
	C331.161194,64.705338 334.744171,67.746201 337.920624,71.884430 
	C349.431061,63.886868 360.996033,63.671745 372.313477,71.686844 
	C380.224091,77.289169 383.490143,85.789879 383.836792,94.996422 
	C384.363007,108.972054 384.584778,123.015839 383.814728,136.968796 
	C382.914276,153.284302 371.355591,169.396408 351.187347,169.132278 
	C341.248352,169.002136 332.411011,167.195465 325.307007,159.811813 
	C321.641876,156.002380 320.941772,151.542084 323.581512,148.275848 
	C326.160278,145.085037 333.102570,144.152359 336.759338,146.542755 
	C337.450012,146.994232 337.961945,147.736359 338.673370,148.136200 
	C342.681519,150.388885 346.043182,154.667786 351.420898,152.974731 
	C359.751312,150.352127 365.541229,145.030792 365.845337,135.927704 
	C366.267883,123.279587 366.145203,110.601715 365.814270,97.948128 
	C365.731903,94.799194 364.527405,91.328629 362.820618,88.656075 
	C360.311401,84.726982 356.454285,82.191292 351.360046,83.447540 
	C344.979980,85.020844 341.069214,89.267021 339.192383,95.450081 
	C338.810181,96.709236 338.749695,98.066048 338.159607,100.065079 
	C337.798676,110.454231 337.819122,120.156151 337.839539,129.858063 
z"/>
<path fill="#343434" opacity="1.000000" stroke="none" 
	d="
M289.198456,67.584763 
	C304.433228,73.041443 312.809967,83.733688 313.745911,99.284782 
	C314.605438,113.565506 308.179932,125.322411 295.873016,132.163956 
	C274.009949,144.317841 247.297913,132.208481 243.404007,109.145462 
	C237.598160,74.758606 266.936798,60.999672 289.198456,67.584763 
M295.227844,95.674530 
	C291.941010,87.872459 286.969269,82.566315 277.632996,82.964493 
	C269.506409,83.311089 262.220398,88.994339 260.268463,96.971130 
	C258.300171,105.014839 262.549561,113.570023 270.793213,118.160378 
	C277.095276,121.669571 284.716888,120.052681 290.616486,113.856140 
	C295.304932,108.931709 296.998718,103.103271 295.227844,95.674530 
z"/>
<path fill="#343434" opacity="1.000000" stroke="none" 
	d="
M86.177582,66.016502 
	C102.478745,66.450104 114.534477,77.184525 116.916382,93.000626 
	C118.994804,106.801559 117.978561,107.991295 104.104721,107.994087 
	C95.283630,107.995857 86.462486,107.979874 77.641495,108.010635 
	C75.845200,108.016899 74.049522,108.196533 72.259270,108.295937 
	C72.665497,114.990067 81.698853,121.583405 88.596008,120.135315 
	C92.266907,119.364594 95.810234,117.753471 99.249481,116.170448 
	C103.676788,114.132660 105.855827,115.088005 109.617432,121.504852 
	C111.644623,124.963005 111.590294,127.975845 107.839180,130.493118 
	C96.601753,138.034241 79.060097,138.203156 67.618317,130.726898 
	C56.548973,123.493996 51.047363,108.391457 53.317627,94.191803 
	C55.754295,78.951309 68.362106,66.653282 86.177582,66.016502 
M78.481224,84.832466 
	C76.959251,86.092407 75.256165,87.194954 73.977386,88.666260 
	C73.087799,89.689781 72.780968,91.219818 72.213806,92.523575 
	C73.488449,93.013649 74.725105,93.697166 76.045090,93.956360 
	C79.550613,94.644745 83.073364,95.381500 86.624077,95.668739 
	C90.936172,96.017563 95.484657,97.151688 99.288597,93.946838 
	C97.201447,83.928047 88.925842,80.136780 78.481224,84.832466 
z"/>
<path fill="#343434" opacity="1.000000" stroke="none" 
	d="
M562.868042,130.884079 
	C560.880676,136.507797 554.936523,138.111130 549.716858,133.939163 
	C546.855042,131.651764 544.827393,131.824036 541.727112,133.409668 
	C535.564453,136.561539 528.996216,137.981567 521.980286,136.022507 
	C510.620361,132.850449 504.242859,122.143707 507.063416,110.628395 
	C509.753357,99.646309 515.300232,94.563515 526.546082,93.230545 
	C532.718445,92.498940 538.941162,92.192490 545.332092,91.679001 
	C546.350342,86.346054 539.641541,81.040947 532.391174,82.457291 
	C529.477112,83.026543 526.644409,84.078842 523.826843,85.060822 
	C519.089966,86.711708 513.511475,84.224747 511.475464,79.444717 
	C510.015503,76.017113 511.669647,71.965393 516.541504,69.924576 
	C529.698547,64.413185 542.970764,63.351009 555.154968,72.270226 
	C560.249207,75.999336 562.841919,81.744339 562.738708,89.100662 
	C562.375732,98.966362 562.067261,108.041382 562.055420,117.116791 
	C562.049438,121.705528 562.580017,126.294960 562.868042,130.884079 
M524.717224,110.999779 
	C522.448975,115.281319 524.598633,117.959412 528.168640,119.856346 
	C532.628662,122.226189 543.108215,118.045280 545.223755,113.296814 
	C546.373535,110.716026 545.553101,109.026703 543.021484,108.313614 
	C536.810181,106.564026 530.636414,105.670593 524.717224,110.999779 
z"/>
<path fill="#343434" opacity="1.000000" stroke="none" 
	d="
M153.231842,81.599808 
	C150.408081,81.586647 147.731964,81.145805 145.611343,82.032928 
	C143.972107,82.718666 142.210114,84.992790 142.052658,86.703438 
	C141.940247,87.924484 144.165817,90.054810 145.754456,90.603989 
	C149.969360,92.061050 154.415298,92.839935 158.747284,93.972832 
	C160.667587,94.475029 162.595520,95.038353 164.415848,95.817314 
	C173.950912,99.897606 177.069748,104.579506 176.987259,114.471413 
	C176.910278,123.701126 172.204163,131.456177 163.871796,134.390244 
	C151.134659,138.875366 138.732697,138.223022 127.338707,130.148407 
	C123.304474,127.289436 122.867516,124.027718 125.800194,119.452286 
	C128.823395,114.735657 131.334869,114.193214 136.140961,116.416359 
	C140.028397,118.214569 144.093521,119.877350 148.257996,120.731766 
	C150.633911,121.219223 153.616638,120.466064 155.860245,119.341797 
	C157.677094,118.431374 158.798126,116.132332 160.227783,114.449219 
	C158.527878,113.047455 157.034912,110.976059 155.087769,110.374344 
	C150.031372,108.811775 144.673920,108.222214 139.619446,106.654808 
	C128.173431,103.105362 123.534882,96.548897 124.040901,85.419891 
	C124.459091,76.222580 131.164505,68.382973 141.572540,66.500900 
	C151.366074,64.729958 161.222809,64.959442 170.318680,70.134842 
	C173.500443,71.945206 175.768326,73.907486 173.957581,78.043991 
	C171.243790,84.243439 168.193405,86.664459 163.924179,85.378204 
	C160.440247,84.328552 157.050278,82.967102 153.231842,81.599808 
z"/>
<path fill="#343434" opacity="1.000000" stroke="none" 
	d="
M200.258606,135.961975 
	C195.725723,134.158585 191.420441,132.740952 187.545410,130.559143 
	C182.882507,127.933739 182.021881,124.428192 184.318192,120.590332 
	C187.923080,114.565399 191.247086,113.449440 196.363708,116.176193 
	C199.416092,117.802864 202.584137,119.572906 205.907104,120.226501 
	C209.011581,120.837112 212.557800,120.607559 215.581772,119.679565 
	C217.315811,119.147423 219.305649,116.570946 219.469742,114.759842 
	C219.589569,113.437386 217.168976,111.170296 215.439178,110.543945 
	C211.878586,109.254692 207.919464,109.091911 204.313660,107.895126 
	C199.791748,106.394279 195.035461,104.956123 191.140472,102.353355 
	C184.477341,97.900803 182.746307,90.913956 184.468750,83.344231 
	C186.539337,74.244568 192.363068,68.319450 201.527756,66.462219 
	C210.323685,64.679703 219.124939,65.210182 227.498917,68.853439 
	C232.988663,71.241844 234.809372,74.376572 233.233521,78.254311 
	C230.902817,83.989616 226.538040,86.176193 221.008102,84.394653 
	C218.165894,83.479004 215.317673,82.581764 212.467117,81.692398 
	C211.833801,81.494804 210.998581,81.026970 210.563614,81.259171 
	C207.649033,82.815117 203.160187,83.949860 202.335602,86.318901 
	C200.995544,90.168915 205.687744,90.835922 208.510315,91.797112 
	C214.772110,93.929489 221.185287,95.620872 227.431961,97.793335 
	C239.199219,101.885704 240.558105,123.734047 229.795715,131.094559 
	C220.826447,137.228775 211.008743,138.079575 200.258606,135.961975 
z"/>
<path fill="#333333" opacity="1.000000" stroke="none" 
	d="
M45.071869,28.374435 
	C45.479332,29.873980 45.911873,31.000046 45.925480,32.131149 
	C46.302013,63.429874 46.694988,94.728668 46.931629,126.028610 
	C46.984562,133.030289 44.019276,135.993027 37.914379,135.960388 
	C32.026962,135.928909 29.064568,132.722809 29.049084,125.741951 
	C28.980700,94.913414 28.895384,64.083328 29.219767,33.258053 
	C29.250679,30.320620 31.469193,25.717068 33.760620,24.885147 
	C37.271015,23.610668 42.441841,22.651031 45.071869,28.374435 
z"/>
<path fill="#333333" opacity="1.000000" stroke="none" 
	d="
M576.674316,66.364525 
	C582.599609,65.369247 585.818665,68.202660 587.978699,73.719780 
	C589.442993,72.569923 590.661255,71.609390 591.883667,70.654175 
	C596.547791,67.009468 601.715881,65.059280 607.665894,66.456627 
	C612.633484,67.623222 615.274414,71.371574 614.927551,76.296181 
	C614.620422,80.657089 611.747620,83.705490 606.554321,83.840485 
	C593.658630,84.175644 587.581665,92.555016 587.951721,104.694206 
	C588.189758,112.501808 587.968384,120.323074 587.975464,128.138199 
	C587.979492,132.581177 586.188477,135.452225 581.445190,135.928955 
	C575.621338,136.514267 573.006958,135.002228 571.595032,129.988815 
	C571.240295,128.729065 571.052551,127.379051 571.049744,126.069954 
	C571.013367,109.109489 571.047913,92.148865 571.006042,75.188431 
	C570.996033,71.145447 572.352722,68.060806 576.674316,66.364525 
z"/>
<path fill="#343434" opacity="1.000000" stroke="none" 
	d="
M438.233093,147.011108 
	C429.269958,159.368973 401.004272,160.597672 390.976410,149.501633 
	C387.927155,146.127563 386.861237,140.894302 389.344421,137.797470 
	C392.337524,134.064667 396.512421,133.957809 400.118225,136.220444 
	C408.700378,141.605774 416.872986,140.795303 425.552399,136.437546 
	C428.247345,135.084457 432.015503,135.026352 435.109650,135.520065 
	C439.154602,136.165466 440.385956,141.132355 438.233093,147.011108 
z"/>
<path fill="#525555" opacity="1.000000" stroke="none" 
	d="
M562.912842,130.424835 
	C562.580017,126.294960 562.049438,121.705528 562.055420,117.116791 
	C562.067261,108.041382 562.375732,98.966362 562.709961,89.518211 
	C562.891357,102.752022 562.924438,116.358810 562.912842,130.424835 
z"/>
<path fill="#525555" opacity="1.000000" stroke="none" 
	d="
M337.890625,129.401093 
	C337.819122,120.156151 337.798676,110.454231 337.942444,100.370483 
	C338.051666,109.640465 337.996674,119.292282 337.890625,129.401093 
z"/>
<path fill="#000000" opacity="1.000000" stroke="none" 
	d="
M458.994446,94.910759 
	C462.381866,85.656136 469.585815,80.816795 476.849091,83.224220 
	C482.128082,84.973946 485.049713,89.121712 486.387207,94.608650 
	C477.043976,94.943184 468.019226,94.926971 458.994446,94.910759 
z"/>
<path fill="#525555" opacity="1.000000" stroke="none" 
	d="
M459.378418,95.067245 
	C468.019226,94.926971 477.043976,94.943184 486.536530,94.923012 
	C477.923645,94.998993 468.843018,95.111359 459.378418,95.067245 
z"/>
<path fill="#000000" opacity="1.000000" stroke="none" 
	d="
M295.400757,96.044678 
	C296.998718,103.103271 295.304932,108.931709 290.616486,113.856140 
	C284.716888,120.052681 277.095276,121.669571 270.793213,118.160378 
	C262.549561,113.570023 258.300171,105.014839 260.268463,96.971130 
	C262.220398,88.994339 269.506409,83.311089 277.632996,82.964493 
	C286.969269,82.566315 291.941010,87.872459 295.400757,96.044678 
z"/>
<path fill="#000000" opacity="1.000000" stroke="none" 
	d="
M78.801727,84.641937 
	C88.925842,80.136780 97.201447,83.928047 99.288597,93.946838 
	C95.484657,97.151688 90.936172,96.017563 86.624077,95.668739 
	C83.073364,95.381500 79.550613,94.644745 76.045090,93.956360 
	C74.725105,93.697166 73.488449,93.013649 72.213806,92.523575 
	C72.780968,91.219818 73.087799,89.689781 73.977386,88.666260 
	C75.256165,87.194954 76.959251,86.092407 78.801727,84.641937 
z"/>
<path fill="#000000" opacity="1.000000" stroke="none" 
	d="
M524.948486,110.726212 
	C530.636414,105.670593 536.810181,106.564026 543.021484,108.313614 
	C545.553101,109.026703 546.373535,110.716026 545.223755,113.296814 
	C543.108215,118.045280 532.628662,122.226189 528.168640,119.856346 
	C524.598633,117.959412 522.448975,115.281319 524.948486,110.726212 
z"/>
</svg>