<?xml version="1.0" standalone="no"?>
<!DOCTYPE svg PUBLIC "-//W3C//DTD SVG 20010904//EN"
 "http://www.w3.org/TR/2001/REC-SVG-20010904/DTD/svg10.dtd">
<svg version="1.0" xmlns="http://www.w3.org/2000/svg"
 width="627.000000pt" height="177.000000pt" viewBox="0 0 627.000000 177.000000"
 preserveAspectRatio="xMidYMid meet">

<g transform="translate(0.000000,177.000000) scale(0.100000,-0.100000)"
fill="#000000" stroke="none">
<path d="M335 1528 c-46 -25 -45 -16 -45 -546 l0 -504 29 -29 c37 -37 65 -37
102 0 l29 29 0 487 c0 529 -1 545 -55 565 -32 12 -35 12 -60 -2z"/>
<path d="M1402 1106 c-63 -21 -115 -60 -141 -107 -19 -34 -23 -52 -19 -104 7
-111 65 -158 242 -196 102 -23 118 -32 114 -67 -9 -71 -121 -88 -228 -35 -35
17 -69 29 -77 26 -7 -3 -25 -25 -40 -50 l-26 -44 28 -29 c42 -43 119 -72 206
-78 152 -9 251 48 284 163 39 134 -37 222 -225 261 -89 18 -120 36 -120 68 0
58 86 73 197 34 59 -21 63 -22 81 -5 10 10 27 33 38 52 17 33 17 35 0 54 -49
55 -224 86 -314 57z"/>
<path d="M1992 1102 c-101 -36 -157 -116 -150 -213 8 -105 62 -150 228 -188
130 -30 159 -60 104 -112 -39 -37 -122 -34 -203 9 -33 17 -67 29 -75 26 -8 -3
-27 -22 -42 -41 -40 -52 -27 -79 60 -123 126 -64 289 -52 377 27 43 39 61 84
61 152 0 106 -62 162 -225 202 -99 25 -127 41 -127 74 0 59 88 74 195 34 l59
-22 33 38 c41 47 41 66 3 99 -62 51 -207 70 -298 38z"/>
<path d="M5250 1106 c-60 -12 -117 -41 -133 -67 -16 -25 0 -66 37 -94 l33 -25
44 20 c105 47 229 10 229 -68 0 -18 -9 -20 -113 -23 -102 -4 -119 -7 -173 -34
-49 -25 -63 -38 -83 -78 -32 -65 -38 -126 -17 -180 49 -128 186 -171 330 -102
59 28 59 28 75 8 38 -48 98 -52 128 -7 13 20 14 59 11 251 -3 210 -5 231 -25
268 -58 110 -196 162 -343 131z m156 -397 c41 -11 44 -14 44 -45 0 -48 -52
-86 -126 -92 -47 -4 -58 -1 -79 18 -31 29 -32 70 -2 97 35 33 89 40 163 22z"/>
<path d="M755 1098 c-100 -36 -192 -134 -216 -231 -17 -72 -7 -193 21 -252 32
-66 99 -131 168 -163 81 -38 192 -37 277 2 63 29 95 52 95 70 0 6 -17 31 -38
56 l-39 44 -60 -27 c-81 -36 -135 -36 -195 2 -42 27 -78 73 -78 101 0 7 73 10
219 10 263 0 257 -2 247 99 -12 129 -98 249 -203 285 -52 18 -153 20 -198 4z
m191 -169 c22 -20 54 -75 54 -94 0 -3 -70 -5 -156 -5 l-155 0 6 23 c11 36 38
69 75 89 50 27 140 21 176 -13z"/>
<path d="M2640 1088 c-78 -30 -170 -124 -195 -198 -29 -85 -26 -192 6 -260 39
-82 90 -135 167 -172 60 -30 76 -33 153 -33 79 0 92 3 155 35 167 85 240 291
160 454 -30 61 -102 133 -167 167 -65 34 -203 37 -279 7z m215 -148 c49 -24
81 -64 96 -122 42 -155 -124 -299 -261 -226 -81 44 -123 132 -106 223 8 42 67
112 111 131 44 19 113 17 160 -6z"/>
<path d="M3242 1103 c-7 -3 -19 -18 -27 -33 -12 -24 -15 -82 -15 -314 0 -281
0 -286 22 -306 37 -34 114 -21 137 24 6 12 12 99 13 203 3 207 7 219 89 261
68 36 141 16 173 -47 20 -39 34 -447 17 -508 -23 -83 -86 -133 -169 -133 -41
0 -60 7 -110 40 -70 47 -96 46 -136 -1 -22 -25 -23 -33 -14 -59 13 -38 58 -76
128 -108 62 -29 172 -35 247 -13 88 25 179 124 208 225 10 36 15 120 17 291 2
231 1 242 -21 299 -30 75 -78 128 -147 162 -46 22 -64 26 -123 22 -56 -3 -78
-9 -120 -35 l-51 -32 -12 22 c-21 41 -64 57 -106 40z"/>
<path d="M4055 1095 c-156 -58 -250 -242 -196 -385 41 -109 128 -177 241 -187
114 -11 239 57 285 153 l17 37 20 -58 c45 -135 142 -215 280 -231 95 -11 258
47 258 93 0 9 -16 37 -36 63 l-36 48 -57 -30 c-95 -50 -182 -31 -238 52 -42
61 -45 60 196 60 183 0 221 2 231 15 18 22 8 140 -17 196 -48 107 -148 178
-263 187 -152 10 -258 -64 -315 -220 l-23 -63 -57 -7 c-57 -8 -85 -21 -85 -41
0 -24 -53 -76 -94 -92 -77 -30 -134 2 -157 89 -9 33 -7 45 16 91 44 91 103
112 210 74 60 -21 69 -22 92 -9 14 8 35 27 47 43 19 26 19 29 4 55 -29 48
-100 77 -198 79 -55 2 -99 -3 -125 -12z m734 -149 c34 -18 46 -33 66 -79 l15
-37 -156 0 -156 0 17 28 c26 40 67 83 90 92 32 14 94 11 124 -4z"/>
<path d="M5730 1090 c-19 -19 -20 -33 -20 -316 l0 -296 29 -29 c35 -35 61 -37
95 -6 25 22 26 25 32 210 6 168 9 192 28 220 28 42 70 64 139 75 68 11 97 33
97 76 -1 54 -41 86 -106 86 -42 0 -118 -40 -134 -70 -15 -28 -27 -25 -35 10
-12 57 -85 80 -125 40z"/>
<path d="M3923 419 c-32 -12 -56 -53 -48 -81 12 -37 43 -64 107 -93 50 -22 76
-28 137 -27 163 0 299 97 248 176 -25 38 -61 41 -125 10 -85 -41 -157 -44
-229 -8 -32 15 -60 29 -63 30 -3 1 -15 -2 -27 -7z"/>
</g>
</svg>
